<svg width="30" height="30" viewBox="0 0 30 30" fill="none" xmlns="http://www.w3.org/2000/svg">
<path fill-rule="evenodd" clip-rule="evenodd" d="M13.003 0C20.1844 0 26.0061 5.82166 26.0061 13.003C26.0061 15.8719 25.0753 18.5224 23.5016 20.6728L29.4141 26.5853C30.1953 27.3666 30.1953 28.6329 29.4141 29.4141C28.6329 30.1953 27.3666 30.1953 26.5853 29.4141L20.6728 23.5016C18.5224 25.0753 15.8719 26.0061 13.003 26.0061C5.82166 26.0061 0 20.1844 0 13.003C0 5.82166 5.82166 0 13.003 0ZM13.003 4.00094C8.03132 4.00094 4.00094 8.03132 4.00094 13.003C4.00094 17.9748 8.03132 22.0052 13.003 22.0052C17.9748 22.0052 22.0052 17.9748 22.0052 13.003C22.0052 8.03132 17.9748 4.00094 13.003 4.00094Z" fill="#402600"/>
</svg>
